<?xml version="1.0" standalone="no"?>
<!DOCTYPE svg PUBLIC "-//W3C//DTD SVG 20010904//EN"
 "http://www.w3.org/TR/2001/REC-SVG-20010904/DTD/svg10.dtd">
<svg version="1.0" xmlns="http://www.w3.org/2000/svg"
 width="512.000000pt" height="512.000000pt" viewBox="0 0 512.000000 512.000000" class="fill-current"
 fill="none"
 preserveAspectRatio="xMidYMid meet">

<g transform="translate(0.000000,512.000000) scale(0.100000,-0.100000)"
fill="#FFFFFF" stroke="none">
<path d="M2338 4628 c-48 -22 -2149 -1969 -2165 -2005 -17 -41 -17 -85 0 -126
17 -40 2121 -1985 2169 -2006 66 -27 144 -2 192 63 21 27 21 39 24 618 l2 590
103 -7 c548 -33 875 -101 1172 -245 337 -163 547 -394 778 -856 76 -151 125
-188 224 -169 49 9 109 71 119 122 9 46 -2 500 -16 683 -43 552 -155 940 -361
1250 -87 131 -282 325 -414 412 -358 236 -797 359 -1415 398 -91 5 -171 10
-177 10 -10 0 -13 132 -15 589 -3 578 -3 590 -24 617 -11 15 -32 37 -46 47
-32 24 -113 32 -150 15z m-72 -1514 c49 -66 56 -68 282 -76 565 -20 919 -87
1231 -234 284 -134 481 -320 621 -586 58 -110 130 -320 159 -465 23 -111 61
-393 61 -449 l0 -35 -61 76 c-33 41 -100 111 -147 156 -316 292 -737 463
-1322 538 -192 25 -511 44 -647 40 -110 -4 -133 -14 -177 -73 -20 -27 -21 -42
-26 -511 l-5 -484 -835 770 c-459 424 -835 775 -835 779 0 5 376 355 835 779
l835 770 5 -484 c5 -469 6 -484 26 -511z"/>
</g>
</svg>